<?xml version="1.0" encoding="utf-8"?>
<!-- Generator: Adobe Illustrator 23.0.1, SVG Export Plug-In . SVG Version: 6.00 Build 0)  -->
<svg version="1.1" id="Capa_1" xmlns="http://www.w3.org/2000/svg" xmlns:xlink="http://www.w3.org/1999/xlink" x="0px" y="0px"
	 viewBox="0 0 438.5 438.5" style="enable-background:new 0 0 438.5 438.5;" xml:space="preserve">
<g>
	<path d="M29.4,329.3c19.6,33.6,46.2,60.2,79.8,79.8c33.6,19.6,70.3,29.4,110.1,29.4c39.8,0,76.5-9.8,110.1-29.4
		c33.6-19.6,60.2-46.2,79.8-79.8c19.6-33.6,29.4-70.3,29.4-110.1c0-39.8-9.8-76.5-29.4-110.1c-19.6-33.6-46.2-60.2-79.8-79.8
		C295.7,9.8,259,0,219.3,0s-76.5,9.8-110.1,29.4C75.6,49,49,75.6,29.4,109.2C9.8,142.8,0,179.5,0,219.3C0,259,9.8,295.7,29.4,329.3z
		 M104.2,206.4L233.8,76.8c3.6-3.6,7.9-5.4,12.8-5.4c5,0,9.2,1.8,12.9,5.4l29.1,29.1c3.6,3.6,5.4,7.9,5.4,12.8
		c0,4.9-1.8,9.2-5.4,12.8L201,219.3l87.7,87.6c3.6,3.6,5.4,7.9,5.4,12.8c0,4.9-1.8,9.2-5.4,12.8l-29.1,29.1
		c-3.6,3.6-7.9,5.4-12.9,5.4c-4.9,0-9.2-1.8-12.9-5.4L104.2,232.1c-3.6-3.6-5.4-7.9-5.4-12.8C98.8,214.3,100.6,210,104.2,206.4z"/>
</g>
</svg>
