<?xml version="1.0" encoding="utf-8"?>
<!-- Generator: Adobe Illustrator 23.0.1, SVG Export Plug-In . SVG Version: 6.00 Build 0)  -->
<svg version="1.1" id="Layer_1" xmlns="http://www.w3.org/2000/svg" xmlns:xlink="http://www.w3.org/1999/xlink" x="0px" y="0px"
	 viewBox="0 0 300 300" style="enable-background:new 0 0 300 300;" xml:space="preserve">
<style type="text/css">
	.st0{fill:#E9F7E8;}
	.st1{fill:#1B6317;}
	.st2{fill:#337C2D;}
	.st3{fill:#7BE279;}
	.st4{fill:#BDF2BB;}
	.st5{fill:#37B729;}
</style>
<polygon class="st0" points="278.98,95.5 278.66,199.33 268,200.09 268.31,95.5 "/>
<polygon class="st1" points="268.31,95.5 268.35,82.15 247.39,69.96 150.41,13.58 32.06,81.43 32.02,94.88 31.65,216.74 
	31.65,217.85 149.59,286.42 267.94,218.57 268,200.09 278.66,199.33 278.58,224.76 149.55,298.74 20.96,223.98 20.98,217.49 
	21.38,87.92 21.42,75.24 150.45,1.26 262.6,66.46 279.04,76.02 278.98,95.5 "/>
<polygon class="st2" points="247.39,69.96 136.41,95.5 59.89,113.11 32.02,94.88 32.06,81.43 150.41,13.58 "/>
<polygon class="st3" points="268.35,82.15 268.31,95.5 136.41,95.5 247.39,69.96 "/>
<polygon class="st4" points="268.31,95.5 268,200.09 200.18,204.86 200.17,204.86 59.89,113.11 136.41,95.5 "/>
<polygon class="st3" points="268,200.09 267.94,218.57 149.59,286.42 31.65,217.85 31.65,216.74 200.17,204.86 200.18,204.86 "/>
<polygon class="st5" points="200.17,204.86 31.65,216.74 32.02,94.88 59.89,113.11 "/>
</svg>
